<svg width="12" height="13" viewBox="0 0 12 13" fill="none" xmlns="http://www.w3.org/2000/svg">
<g clip-path="url(#clip0_4271_12762)">
<path d="M10.25 2.47949C8.945 2.82949 7.415 2.97949 6 2.97949C4.585 2.97949 3.055 2.82949 1.75 2.47949L1.5 3.47949C2.43 3.72949 3.5 3.89449 4.5 3.97949V9.97949H5.5V6.97949H6.5V9.97949H7.5V3.97949C8.5 3.89449 9.57 3.72949 10.5 3.47949L10.25 2.47949ZM6 2.47949C6.55 2.47949 7 2.02949 7 1.47949C7 0.929492 6.55 0.479492 6 0.479492C5.45 0.479492 5 0.929492 5 1.47949C5 2.02949 5.45 2.47949 6 2.47949ZM3.5 12.4795H4.5V11.4795H3.5V12.4795ZM5.5 12.4795H6.5V11.4795H5.5V12.4795ZM7.5 12.4795H8.5V11.4795H7.5V12.4795Z" fill="#0B0A0A"/>
</g>
<defs>
<clipPath id="clip0_4271_12762">
<rect width="12" height="12" fill="white" transform="translate(0 0.479492)"/>
</clipPath>
</defs>
</svg>
