<svg width="150" height="64" viewBox="0 0 150 64" fill="none" xmlns="http://www.w3.org/2000/svg">
<mask id="mask0_43_79" style="mask-type:alpha" maskUnits="userSpaceOnUse" x="-204" y="-42" width="360" height="106">
<rect x="-204" y="-42" width="360" height="106" fill="#069154"/>
</mask>
<g mask="url(#mask0_43_79)">
<path d="M79.847 83.9338L92.2028 40.4569L83.9849 41.672L81.5957 26.5749L96.4528 22.1446L110.338 21.1338C115.565 30.9457 123.748 28.2317 127.186 25.6482L138.572 33.4305L148.252 44.6984L138.893 56.6473L132.105 51.1488L119.306 94.5069L79.847 83.9338Z" fill="#6979BE" stroke="#6979BE" stroke-width="2"/>
<path d="M16.799 50.3542L43.3354 102.444L96.3247 71.8403L62.089 24.1976L16.799 50.3542Z" fill="#6979BE" stroke="#6979BE" stroke-width="1.24734"/>
<ellipse cx="1.74834" cy="1.73005" rx="1.74834" ry="1.73005" transform="matrix(0.865955 -0.500121 0.516528 0.85627 25.0801 53.563)" fill="#6979BE"/>
<ellipse cx="1.74834" cy="1.73005" rx="1.74834" ry="1.73005" transform="matrix(0.865955 -0.500121 0.516528 0.85627 59.8984 33.4519)" fill="#6979BE"/>
<path d="M26.8479 53.5388C17.375 3.26248 28.9156 5.78757 62.0479 33.2094" stroke="#6979BE" stroke-width="1.24734"/>
</g>
</svg>