<svg width="10" height="11" viewBox="0 0 10 11" fill="none" xmlns="http://www.w3.org/2000/svg">
<path d="M9.64823 1.88115L6.02326 5.50611L9.64823 9.13108C9.93304 9.4159 9.93304 9.88196 9.64823 10.1668C9.36341 10.4516 8.89734 10.4516 8.61252 10.1668L4.98756 6.54182L1.3626 10.1668C1.07778 10.4516 0.611714 10.4516 0.326895 10.1668C0.0420766 9.88196 0.0420766 9.4159 0.326895 9.13108L3.95186 5.50611L0.326895 1.88115C0.0420766 1.59633 0.0420766 1.13027 0.326895 0.84545C0.611714 0.560631 1.07778 0.560631 1.3626 0.84545L4.98756 4.47041L8.61252 0.84545C8.89734 0.560631 9.36341 0.560631 9.64823 0.84545C9.93304 1.13027 9.93304 1.59633 9.64823 1.88115Z" fill="#FF634B"/>
</svg>
