<svg width="118" height="117" viewBox="0 0 118 117" fill="none" xmlns="http://www.w3.org/2000/svg">
<path d="M51.1149 10.9983L11.4577 54.0745L11.4155 54.0497C10.5263 64.0329 12.7846 74.0441 17.8734 82.6789C22.9623 91.3137 30.6265 98.139 39.7909 102.197C48.9554 106.255 59.1603 107.343 68.9742 105.308C78.7882 103.272 87.7188 98.2158 94.5133 90.8475C101.308 83.4793 105.625 74.169 106.86 64.2226C108.095 54.2762 106.186 44.1926 101.4 35.3865C96.6136 26.5803 89.1908 19.4932 80.1727 15.1195C71.1546 10.7457 60.9935 9.30456 51.1149 10.9983Z" fill="#F43518" stroke="#110002" stroke-width="2.36552" stroke-linejoin="round"/>
<g clip-path="url(#clip0_4274_15276)">
<path d="M47.4805 32.8913L54.9436 30.9665C60.605 29.5051 66.6148 30.3515 71.6517 33.3194C76.6886 36.2873 80.3402 41.1338 81.8036 46.7932L86.9551 66.7677C87.7016 69.6548 87.8719 72.6608 87.4564 75.614C87.0409 78.5671 86.0477 81.4096 84.5335 83.9791C83.0194 86.5486 81.0138 88.7948 78.6314 90.5895C76.2491 92.3842 73.5365 93.6922 70.6487 94.4388L65.0821 95.8745C59.2489 97.3789 53.0571 96.505 47.8689 93.445C42.6807 90.3851 38.921 85.3897 37.4169 79.5579L32.0967 58.9295C30.6797 53.4353 31.5039 47.603 34.3878 42.7158C37.2718 37.8285 41.9793 34.2866 47.4749 32.8693L47.4805 32.8913Z" fill="#E28281" stroke="#110002" stroke-width="2.36552" stroke-miterlimit="10"/>
<path d="M49.5567 75.3548C50.8441 75.0228 51.6187 73.7102 51.2867 72.4231C50.9548 71.1359 49.642 70.3617 48.3545 70.6937C47.0671 71.0258 46.2925 72.3384 46.6245 73.6255C46.9565 74.9126 48.2692 75.6869 49.5567 75.3548Z" fill="#110002"/>
<path d="M49.7699 65.687L44.332 69.6543" stroke="#110002" stroke-width="2.95689" stroke-miterlimit="10" stroke-linecap="round"/>
<path d="M72.6114 69.4042C73.8988 69.0721 74.6734 67.7595 74.3414 66.4724C74.0095 65.1853 72.6967 64.411 71.4092 64.743C70.1218 65.0751 69.3472 66.3877 69.6792 67.6748C70.0112 68.9619 71.3239 69.7362 72.6114 69.4042Z" fill="#110002"/>
<path d="M67.4158 61.4862L74.1461 61.6045" stroke="#110002" stroke-width="2.95689" stroke-miterlimit="10" stroke-linecap="round"/>
<path d="M58.4179 82.2343C57.9063 82.0477 57.4585 81.7194 57.1267 81.2877C56.7948 80.8561 56.5926 80.339 56.5438 79.7967C56.998 78.9072 59.3811 74.0236 57.1403 70.3278C56.8792 69.8945 56.5668 69.4941 56.2101 69.1353" stroke="#110002" stroke-width="2.36552" stroke-miterlimit="10" stroke-linecap="round"/>
<path d="M70.0561 81.8974C68.1327 81.9758 66.2549 82.5066 64.5751 83.4468C62.8475 84.4301 61.3347 85.7498 60.1261 87.3279" stroke="#110002" stroke-width="2.36552" stroke-miterlimit="10" stroke-linecap="round"/>
<path d="M84.6055 57.6558L87.2271 67.8207C87.8947 67.6485 88.5218 67.3466 89.0727 66.9321C89.6236 66.5176 90.0875 65.9987 90.4378 65.405C90.7882 64.8113 91.0181 64.1544 91.1146 63.4719C91.211 62.7894 91.1721 62.0946 90.9999 61.4271C90.8278 60.7597 90.5259 60.1327 90.1113 59.582C89.6968 59.0312 89.1779 58.5675 88.5841 58.2173C87.9903 57.8671 87.3333 57.6373 86.6507 57.5409C85.968 57.4446 85.2731 57.4836 84.6055 57.6558Z" fill="#E28281" stroke="#110002" stroke-width="2.36552" stroke-miterlimit="10"/>
<path d="M35.0637 70.4326L37.6853 80.5976C35.6922 81.1116 33.4903 79.2547 32.7659 76.4458C32.0414 73.6368 33.0706 70.9466 35.0637 70.4326Z" fill="#E28281" stroke="#110002" stroke-width="2.36552" stroke-miterlimit="10"/>
<path d="M48.7738 51.899C48.5472 54.1247 47.7848 56.615 45.4641 60.5604C43.0105 64.7301 39.361 68.0669 34.9884 70.1385L31.4375 56.3701L48.7738 51.899Z" fill="#110002" stroke="#110002" stroke-width="2.36552" stroke-miterlimit="10" stroke-linecap="round"/>
<path d="M63.7344 48.4199C65.0015 50.2651 66.8721 52.0716 70.8203 54.4003C74.9855 56.8618 79.7931 58.0187 84.6227 57.7215L81.0706 43.9488L63.7344 48.4199Z" fill="#110002" stroke="#110002" stroke-width="2.36552" stroke-miterlimit="10" stroke-linecap="round"/>
<path d="M67.9668 51.0117C71.5059 53.9077 75.8304 55.6794 80.3847 56.099" stroke="#1F307C" stroke-width="1.18276" stroke-miterlimit="10" stroke-linecap="round"/>
<path d="M75.2162 52.8732C75.9739 53.1417 76.7502 53.3545 77.5389 53.5099C79.1299 53.8113 80.7555 53.8868 82.3677 53.7343L81.3048 49.6131C74.3546 50.6941 72.8146 51.3674 72.854 51.7926C72.877 52.0815 73.6564 52.344 75.2162 52.8732Z" fill="#1F307C" stroke="#1F307C" stroke-width="1.18276" stroke-miterlimit="10" stroke-linecap="round"/>
<path d="M46.0128 56.8046C45.3242 58.5424 44.4249 60.1892 43.3351 61.7081C41.7654 63.8847 39.8275 65.7706 37.6088 67.2807" stroke="#1F307C" stroke-width="1.18276" stroke-miterlimit="10" stroke-linecap="round"/>
<path d="M40.7198 61.9004C40.2012 62.4314 39.6468 62.9263 39.0604 63.3815C37.8574 64.3102 36.5377 65.077 35.1352 65.6624L34.2206 62.1161C40.4873 59.8914 42.3805 59.2626 42.5545 59.5922C42.6738 59.8189 41.8026 60.816 40.7198 61.9004Z" fill="#1F307C" stroke="#1F307C" stroke-width="1.18276" stroke-miterlimit="10" stroke-linecap="round"/>
<path d="M83.5571 48.6491L31.8468 61.9855C31.3085 62.1191 30.7394 62.0395 30.2585 61.7632C29.7839 61.477 29.4412 61.0155 29.3044 60.4786L28.0366 55.5629C27.8983 55.0266 27.9781 54.4574 28.2586 53.9798C28.539 53.5021 28.9973 53.155 29.5331 53.0143L81.2433 39.6779C81.5099 39.6086 81.7875 39.5925 82.0603 39.6305C82.3331 39.6686 82.5957 39.76 82.8331 39.8997C83.0705 40.0393 83.278 40.2244 83.4437 40.4444C83.6094 40.6643 83.7301 40.9148 83.7989 41.1814L85.0667 46.0971C85.1354 46.3638 85.1509 46.6414 85.1123 46.9141C85.0736 47.1867 84.9815 47.4491 84.8413 47.6861C84.701 47.9232 84.5154 48.1302 84.2951 48.2955C84.0747 48.4607 83.8239 48.5809 83.5571 48.6491Z" fill="#FEB20E" stroke="#110002" stroke-width="1.77414" stroke-miterlimit="10"/>
<path d="M45.7374 22.86L52.2566 21.1786C58.4356 19.585 64.9944 20.5107 70.4902 23.7521C75.986 26.9934 79.9686 32.2849 81.5618 38.4624L81.8357 39.5246L28.7207 53.2233L28.4467 52.1612C26.8535 45.9836 27.7801 39.426 31.0228 33.931C34.2654 28.4359 39.5584 24.4536 45.7374 22.86Z" fill="#FEB20E" stroke="#110002" stroke-width="2.36552" stroke-miterlimit="10"/>
<path d="M31.8906 52.4053L34.2043 61.3764" stroke="#110002" stroke-width="2.36552" stroke-miterlimit="10"/>
<path d="M37.5488 50.9468L39.8625 59.9179" stroke="#110002" stroke-width="2.36552" stroke-miterlimit="10"/>
<path d="M42.7617 49.4282L45.0754 58.3994" stroke="#110002" stroke-width="2.36552" stroke-miterlimit="10"/>
<path d="M47.7051 48.1538L50.0188 57.125" stroke="#110002" stroke-width="2.36552" stroke-miterlimit="10"/>
<path d="M52.9316 46.7451L55.2454 55.7163" stroke="#110002" stroke-width="2.36552" stroke-miterlimit="10"/>
<path d="M58.2305 45.3779L60.5442 54.3491" stroke="#110002" stroke-width="2.36552" stroke-miterlimit="10"/>
<path d="M63.084 43.958L65.3977 52.9292" stroke="#110002" stroke-width="2.36552" stroke-miterlimit="10"/>
<path d="M68.3828 42.5908L70.6965 51.562" stroke="#110002" stroke-width="2.36552" stroke-miterlimit="10"/>
<path d="M73.8008 41.4512L76.1145 50.4223" stroke="#110002" stroke-width="2.36552" stroke-miterlimit="10"/>
<path d="M79.0996 40.0845L81.4133 49.0556" stroke="#110002" stroke-width="2.36552" stroke-miterlimit="10"/>
<path d="M53.5911 43.0167C57.8753 41.9117 60.9758 39.5717 60.5163 37.7901C60.0568 36.0085 56.2113 35.4599 51.9271 36.5648C47.6429 37.6697 44.5424 40.0097 45.0019 41.7914C45.4614 43.573 49.3069 44.1216 53.5911 43.0167Z" fill="#F43518" stroke="#110002" stroke-width="2.36552" stroke-miterlimit="10"/>
</g>
<path d="M51.1148 10.998C51.0059 12.2859 50.5042 13.6074 50.2871 14.9073C46.8571 35.5065 30.8819 50.6065 11.4192 54.0484L51.1148 10.998Z" fill="#FFEADF" stroke="#110002" stroke-width="2.36552" stroke-linejoin="bevel"/>
<defs>
<clipPath id="clip0_4274_15276">
<rect width="61.9529" height="77.3449" fill="white" transform="translate(19.5137 28.686) rotate(-14.4618)"/>
</clipPath>
</defs>
</svg>
