<svg width="118" height="117" viewBox="0 0 118 117" fill="none" xmlns="http://www.w3.org/2000/svg">
<path d="M51.1149 10.9983L11.4577 54.0745L11.4155 54.0497C10.5263 64.0329 12.7846 74.0441 17.8734 82.6789C22.9623 91.3137 30.6265 98.139 39.7909 102.197C48.9554 106.255 59.1603 107.343 68.9742 105.308C78.7882 103.272 87.7188 98.2158 94.5133 90.8475C101.308 83.4793 105.625 74.169 106.86 64.2226C108.095 54.2762 106.186 44.1926 101.4 35.3865C96.6136 26.5803 89.1908 19.4932 80.1727 15.1195C71.1546 10.7457 60.9935 9.30456 51.1149 10.9983Z" fill="#FEB20E" stroke="#110002" stroke-width="2.36552" stroke-linejoin="round"/>
<g clip-path="url(#clip0_4292_15755)">
<path d="M60.8186 42.1122L79.0435 74.0146H42.5938L60.8186 42.1122ZM60.8186 32.3281L34.1953 78.9189H87.4419L60.8186 32.3281ZM63.2389 66.6582H58.3983V71.5625H63.2389V66.6582ZM63.2389 51.9453H58.3983V61.7539H63.2389V51.9453Z" fill="#0B0A0A"/>
</g>
<path d="M51.1148 10.998C51.0059 12.2859 50.5042 13.6074 50.2871 14.9073C46.8571 35.5065 30.8819 50.6065 11.4192 54.0484L51.1148 10.998Z" fill="#FFEADF" stroke="#110002" stroke-width="2.36552" stroke-linejoin="bevel"/>
<defs>
<clipPath id="clip0_4292_15755">
<rect width="53.2466" height="53.2466" fill="white" transform="translate(34.1953 29)"/>
</clipPath>
</defs>
</svg>
