<svg width="16" height="16" viewBox="0 0 16 16" fill="none" xmlns="http://www.w3.org/2000/svg">
<path d="M2.6224 6.33333H11.9557V7.66667H13.2891V3.66667C13.2891 2.93333 12.6891 2.33333 11.9557 2.33333H11.2891V1H9.95573V2.33333H4.6224V1H3.28906V2.33333H2.6224C1.8824 2.33333 1.29573 2.93333 1.29573 3.66667L1.28906 13C1.28906 13.7333 1.8824 14.3333 2.6224 14.3333H7.28906V13H2.6224V6.33333ZM2.6224 3.66667H11.9557V5H2.6224V3.66667ZM14.5157 10.52L14.0424 10.9933L12.6291 9.58L13.1024 9.10667C13.3624 8.84667 13.7824 8.84667 14.0424 9.10667L14.5157 9.58C14.7757 9.84 14.7757 10.26 14.5157 10.52ZM12.1557 10.0533L13.5691 11.4667L10.0357 15H8.6224V13.5867L12.1557 10.0533Z" fill="black"/>
</svg>
