<svg width="118" height="117" viewBox="0 0 118 117" fill="none" xmlns="http://www.w3.org/2000/svg">
    <path d="M50.8688 10.9983L11.2116 54.0745L11.1694 54.0497C10.2803 64.0329 12.5385 74.0441 17.6273 82.6789C22.7162 91.3137 30.3804 98.139 39.5448 102.197C48.7093 106.255 58.9142 107.343 68.7281 105.308C78.5421 103.272 87.4727 98.2158 94.2672 90.8475C101.062 83.4793 105.379 74.169 106.614 64.2226C107.849 54.2762 105.94 44.1926 101.154 35.3865C96.3675 26.5803 88.9447 19.4932 79.9266 15.1195C70.9085 10.7457 60.7474 9.30456 50.8688 10.9983Z" fill="#F43518" stroke="#110002" stroke-width="2.36552" stroke-linejoin="round"/>
    <g clip-path="url(#clip0_4292_16067)">
        <path d="M47.2344 32.8908L54.6975 30.966C60.3589 29.5046 66.3687 30.351 71.4057 33.3189C76.4426 36.2868 80.0941 41.1333 81.5575 46.7928L86.709 66.7672C87.4555 69.6544 87.6258 72.6603 87.2103 75.6135C86.7948 78.5666 85.8016 81.4091 84.2875 83.9786C82.7733 86.5481 80.7677 88.7943 78.3854 90.589C76.003 92.3837 73.2904 93.6917 70.4026 94.4383L64.836 95.874C59.0028 97.3784 52.811 96.5045 47.6228 93.4446C42.4346 90.3846 38.6749 85.3893 37.1708 79.5574L31.8506 58.929C30.4336 53.4348 31.2578 47.6025 34.1417 42.7153C37.0257 37.828 41.7332 34.2862 47.2288 32.8688L47.2344 32.8908Z" fill="#E28281" stroke="#110002" stroke-width="2.36552" stroke-miterlimit="10"/>
        <path d="M49.3106 75.3548C50.598 75.0228 51.3726 73.7102 51.0406 72.4231C50.7087 71.1359 49.3959 70.3617 48.1085 70.6937C46.821 71.0258 46.0465 72.3384 46.3784 73.6255C46.7104 74.9126 48.0232 75.6869 49.3106 75.3548Z" fill="#110002"/>
        <path d="M49.5238 65.687L44.0859 69.6543" stroke="#110002" stroke-width="2.95689" stroke-miterlimit="10" stroke-linecap="round"/>
        <path d="M72.3653 69.4037C73.6527 69.0716 74.4273 67.759 74.0953 66.4719C73.7634 65.1848 72.4506 64.4105 71.1631 64.7425C69.8757 65.0746 69.1011 66.3872 69.4331 67.6743C69.7651 68.9615 71.0778 69.7357 72.3653 69.4037Z" fill="#110002"/>
        <path d="M67.1697 61.4857L73.9 61.6041" stroke="#110002" stroke-width="2.95689" stroke-miterlimit="10" stroke-linecap="round"/>
        <path d="M58.1718 82.2338C57.6603 82.0472 57.2124 81.7189 56.8806 81.2873C56.5487 80.8556 56.3466 80.3385 56.2977 79.7963C56.7519 78.9068 59.135 74.0231 56.8942 70.3273C56.6331 69.894 56.3207 69.4936 55.964 69.1348" stroke="#110002" stroke-width="2.36552" stroke-miterlimit="10" stroke-linecap="round"/>
        <path d="M69.81 81.8964C67.8866 81.9748 66.0088 82.5057 64.329 83.4458C62.6014 84.4291 61.0886 85.7488 59.88 87.3269" stroke="#110002" stroke-width="2.36552" stroke-miterlimit="10" stroke-linecap="round"/>
        <path d="M84.3594 57.6553L86.981 67.8202C87.6486 67.6481 88.2757 67.3461 88.8266 66.9316C89.3775 66.5171 89.8414 65.9982 90.1918 65.4045C90.5421 64.8108 90.772 64.154 90.8685 63.4714C90.9649 62.7889 90.926 62.0941 90.7538 61.4266C90.5817 60.7592 90.2798 60.1322 89.8652 59.5815C89.4507 59.0307 88.9318 58.567 88.338 58.2168C87.7442 57.8666 87.0872 57.6368 86.4046 57.5404C85.7219 57.4441 85.027 57.4831 84.3594 57.6553Z" fill="#E28281" stroke="#110002" stroke-width="2.36552" stroke-miterlimit="10"/>
        <path d="M34.8176 70.4326L37.4392 80.5976C35.4461 81.1116 33.2442 79.2547 32.5198 76.4458C31.7953 73.6368 32.8245 70.9466 34.8176 70.4326Z" fill="#E28281" stroke="#110002" stroke-width="2.36552" stroke-miterlimit="10"/>
        <path d="M48.5277 51.898C48.3011 54.1237 47.5387 56.614 45.218 60.5594C42.7645 64.7291 39.1149 68.0659 34.7423 70.1375L31.1914 56.3691L48.5277 51.898Z" fill="#110002" stroke="#110002" stroke-width="2.36552" stroke-miterlimit="10" stroke-linecap="round"/>
        <path d="M63.4883 48.4189C64.7554 50.2641 66.626 52.0707 70.5742 54.3993C74.7394 56.8608 79.547 58.0177 84.3766 57.7205L80.8245 43.9478L63.4883 48.4189Z" fill="#110002" stroke="#110002" stroke-width="2.36552" stroke-miterlimit="10" stroke-linecap="round"/>
        <path d="M67.7207 51.0107C71.2598 53.9067 75.5843 55.6784 80.1386 56.0981" stroke="#1F307C" stroke-width="1.18276" stroke-miterlimit="10" stroke-linecap="round"/>
        <path d="M74.9701 52.8727C75.7278 53.1412 76.5041 53.354 77.2928 53.5094C78.8838 53.8108 80.5094 53.8863 82.1216 53.7338L81.0587 49.6126C74.1085 50.6936 72.5685 51.3669 72.6079 51.7921C72.6309 52.081 73.4103 52.3435 74.9701 52.8727Z" fill="#1F307C" stroke="#1F307C" stroke-width="1.18276" stroke-miterlimit="10" stroke-linecap="round"/>
        <path d="M45.7667 56.8046C45.0781 58.5424 44.1788 60.1892 43.089 61.7081C41.5193 63.8847 39.5814 65.7706 37.3627 67.2807" stroke="#1F307C" stroke-width="1.18276" stroke-miterlimit="10" stroke-linecap="round"/>
        <path d="M40.4737 61.8994C39.9551 62.4304 39.4007 62.9253 38.8143 63.3806C37.6113 64.3092 36.2916 65.076 34.8891 65.6614L33.9745 62.1151C40.2412 59.8904 42.1344 59.2617 42.3084 59.5913C42.4277 59.8179 41.5565 60.815 40.4737 61.8994Z" fill="#1F307C" stroke="#1F307C" stroke-width="1.18276" stroke-miterlimit="10" stroke-linecap="round"/>
        <path d="M83.311 48.6481L31.6007 61.9845C31.0624 62.1181 30.4933 62.0385 30.0124 61.7622C29.5378 61.4761 29.1951 61.0146 29.0583 60.4776L27.7906 55.5619C27.6522 55.0256 27.732 54.4564 28.0125 53.9788C28.293 53.5011 28.7512 53.154 29.287 53.0134L80.9972 39.677C81.2638 39.6076 81.5414 39.5915 81.8142 39.6295C82.087 39.6676 82.3496 39.759 82.587 39.8987C82.8244 40.0384 83.0319 40.2235 83.1976 40.4434C83.3633 40.6633 83.484 40.9138 83.5528 41.1805L84.8206 46.0962C84.8894 46.3628 84.9048 46.6404 84.8662 46.9131C84.8275 47.1857 84.7354 47.4481 84.5952 47.6851C84.4549 47.9222 84.2693 48.1293 84.049 48.2945C83.8286 48.4597 83.5778 48.5799 83.311 48.6481Z" fill="#FEB20E" stroke="#110002" stroke-width="1.77414" stroke-miterlimit="10"/>
        <path d="M45.4913 22.8595L52.0105 21.1781C58.1895 19.5845 64.7483 20.5102 70.2441 23.7516C75.7399 26.9929 79.7225 32.2844 81.3157 38.462L81.5896 39.5241L28.4746 53.2228L28.2006 52.1607C26.6074 45.9831 27.534 39.4255 30.7767 33.9305C34.0193 28.4354 39.3123 24.4531 45.4913 22.8595Z" fill="#FEB20E" stroke="#110002" stroke-width="2.36552" stroke-miterlimit="10"/>
        <path d="M31.6445 52.4053L33.9582 61.3764" stroke="#110002" stroke-width="2.36552" stroke-miterlimit="10"/>
        <path d="M37.3027 50.9463L39.6165 59.9174" stroke="#110002" stroke-width="2.36552" stroke-miterlimit="10"/>
        <path d="M42.5156 49.4277L44.8293 58.3989" stroke="#110002" stroke-width="2.36552" stroke-miterlimit="10"/>
        <path d="M47.459 48.1533L49.7727 57.1245" stroke="#110002" stroke-width="2.36552" stroke-miterlimit="10"/>
        <path d="M52.6855 46.7441L54.9993 55.7153" stroke="#110002" stroke-width="2.36552" stroke-miterlimit="10"/>
        <path d="M57.9844 45.377L60.2981 54.3481" stroke="#110002" stroke-width="2.36552" stroke-miterlimit="10"/>
        <path d="M62.8379 43.958L65.1516 52.9292" stroke="#110002" stroke-width="2.36552" stroke-miterlimit="10"/>
        <path d="M68.1367 42.5908L70.4504 51.562" stroke="#110002" stroke-width="2.36552" stroke-miterlimit="10"/>
        <path d="M73.5547 41.4512L75.8684 50.4223" stroke="#110002" stroke-width="2.36552" stroke-miterlimit="10"/>
        <path d="M78.8535 40.084L81.1672 49.0551" stroke="#110002" stroke-width="2.36552" stroke-miterlimit="10"/>
        <path d="M53.345 43.0167C57.6292 41.9117 60.7297 39.5717 60.2702 37.7901C59.8107 36.0085 55.9652 35.4599 51.681 36.5648C47.3968 37.6697 44.2963 40.0097 44.7558 41.7914C45.2153 43.573 49.0608 44.1216 53.345 43.0167Z" fill="#F43518" stroke="#110002" stroke-width="2.36552" stroke-miterlimit="10"/>
    </g>
    <path d="M50.8687 10.998C50.7598 12.2859 50.2581 13.6074 50.041 14.9073C46.611 35.5065 30.6358 50.6065 11.1731 54.0484L50.8687 10.998Z" fill="#FFEADF" stroke="#110002" stroke-width="2.36552" stroke-linejoin="bevel"/>
    <defs>
        <clipPath id="clip0_4292_16067">
            <rect width="61.9529" height="77.3449" fill="white" transform="translate(19.2676 28.6855) rotate(-14.4618)"/>
        </clipPath>
    </defs>
</svg>
