<svg width="330" height="114" viewBox="0 0 330 114" fill="none" xmlns="http://www.w3.org/2000/svg">
    <path d="M329.5 1V0.499999H329H1H0.499999V1V113V113.5H1H329H329.5V113V1Z" fill="white" stroke="#110002" stroke-miterlimit="10"/>
    <path d="M325.5 5V4.5H325H5H4.5V5V109V109.5H5H325H325.5V109V5Z" fill="#E28281" stroke="#110002" stroke-miterlimit="10"/>
    <mask id="mask0_4274_13923" style="mask-type:alpha" maskUnits="userSpaceOnUse" x="5" y="5" width="320" height="104">
        <path d="M325 5H5V109H325V5Z" fill="#F43518"/>
    </mask>
    <g mask="url(#mask0_4274_13923)">
        <path d="M48.4 76.7444C48.2426 76.6099 48.1843 76.3923 48.2534 76.1971L60.9295 40.4179C61.0466 40.0874 61.4587 39.9769 61.7254 40.2047L90.5928 64.8523C90.7503 64.9868 90.8086 65.2044 90.7395 65.3995L78.0634 101.179C77.9463 101.509 77.5341 101.62 77.2674 101.392L48.4 76.7444Z" fill="#069154" stroke="black"/>
        <path d="M13.0652 19.9646C12.9961 19.7694 13.0544 19.5518 13.2118 19.4174L37.8419 -1.61238C38.1086 -1.84009 38.5208 -1.72966 38.6379 -1.3991L49.4533 29.1282C49.5225 29.3234 49.4642 29.541 49.3067 29.6755L24.6766 50.7052C24.4099 50.9329 23.9977 50.8225 23.8806 50.492L13.0652 19.9646Z" fill="#069154" stroke="black"/>
        <path d="M-5.19849 81.2833C-5.3158 81.1126 -5.3158 80.8874 -5.19849 80.7167L10.088 58.4819C10.2867 58.1929 10.7133 58.1929 10.912 58.4819L26.1985 80.7167C26.3158 80.8874 26.3158 81.1126 26.1985 81.2833L10.912 103.518C10.7133 103.807 10.2867 103.807 10.088 103.518L-5.19849 81.2833Z" fill="#069154" stroke="black"/>
        <path d="M274.592 76.7444C274.75 76.6099 274.808 76.3923 274.739 76.1971L262.063 40.4179C261.946 40.0874 261.533 39.9769 261.267 40.2047L232.399 64.8523C232.242 64.9868 232.184 65.2044 232.253 65.3995L244.929 101.179C245.046 101.509 245.458 101.62 245.725 101.392L274.592 76.7444Z" fill="#069154" stroke="black"/>
        <path d="M309.927 19.9646C309.996 19.7694 309.938 19.5518 309.78 19.4174L285.15 -1.61238C284.884 -1.84009 284.471 -1.72966 284.354 -1.3991L273.539 29.1282C273.47 29.3234 273.528 29.541 273.686 29.6755L298.316 50.7052C298.582 50.9329 298.994 50.8225 299.112 50.492L309.927 19.9646Z" fill="#069154" stroke="black"/>
        <path d="M328.191 81.2833C328.308 81.1126 328.308 80.8874 328.191 80.7167L312.904 58.4819C312.706 58.1929 312.279 58.1929 312.08 58.4819L296.794 80.7167C296.676 80.8874 296.676 81.1126 296.794 81.2833L312.08 103.518C312.279 103.807 312.706 103.807 312.904 103.518L328.191 81.2833Z" fill="#069154" stroke="black"/>
        <path d="M249.172 186.362C269.706 155.562 274.845 122.922 260.65 113.459C246.456 103.996 218.303 121.293 197.769 152.094C177.236 182.895 172.097 215.534 186.291 224.997C200.486 234.46 228.638 217.163 249.172 186.362Z" fill="#ED6E30" stroke="#110002" stroke-width="1.80572" stroke-linejoin="round"/>
        <path d="M114.107 48.7288L113.27 91.7237L154.375 72.8755L121.265 45.4454C120.631 44.9208 119.863 44.5855 119.047 44.4783C118.232 44.371 117.402 44.496 116.655 44.8389C115.907 45.1819 115.271 45.7288 114.82 46.4169C114.37 47.105 114.122 47.9064 114.107 48.7288Z" fill="#110002" stroke="#110002" stroke-width="1.80572" stroke-linejoin="round"/>
        <path d="M120.924 60.2721L119.375 102.49L159.287 84.1932L126.288 57.8108C125.81 57.4287 125.235 57.187 124.627 57.1125C124.02 57.038 123.404 57.1337 122.848 57.3889C122.291 57.6442 121.817 58.0489 121.477 58.558C121.138 59.0671 120.946 59.6605 120.924 60.2721Z" fill="#FFE3D4" stroke="#110002" stroke-width="1.80572" stroke-miterlimit="10"/>
        <path d="M163.926 142.99C194.573 142.99 219.418 125.547 219.418 104.03C219.418 82.5136 194.573 65.0708 163.926 65.0708C133.278 65.0708 108.434 82.5136 108.434 104.03C108.434 125.547 133.278 142.99 163.926 142.99Z" fill="#FFE3D4" stroke="#110002" stroke-width="1.80572" stroke-miterlimit="10"/>
        <path d="M212.134 48.096L214.826 91.0107L172.934 73.9671L204.84 45.1284C205.45 44.577 206.204 44.2088 207.013 44.0662C207.823 43.9236 208.657 44.0124 209.419 44.3223C210.181 44.6322 210.839 45.1507 211.32 45.8183C211.8 46.4858 212.082 47.2753 212.134 48.096Z" fill="#110002" stroke="#110002" stroke-width="1.80572" stroke-linejoin="round"/>
        <path d="M206.652 60.1908L210.161 98.5187L171.953 82.979L201.213 57.9751C201.674 57.5824 202.235 57.3239 202.833 57.2279C203.431 57.1318 204.044 57.2019 204.606 57.4305C205.167 57.6591 205.654 58.0374 206.015 58.5242C206.376 59.0109 206.596 59.5874 206.652 60.1908Z" fill="#FFE3D4" stroke="#110002" stroke-width="1.80572" stroke-miterlimit="10"/>
        <path d="M219.402 103.409C218.926 82.1745 194.268 65.0708 163.925 65.0708C133.583 65.0708 108.925 82.1745 108.443 103.404C108.443 103.464 108.443 103.519 108.443 103.579H108.849L163.93 128.087L219.006 103.579H219.412C219.407 103.524 219.402 103.469 219.402 103.409Z" fill="#ED6E30" stroke="#110002" stroke-width="1.80572" stroke-linejoin="round"/>
        <path d="M140.021 106.565C142.718 106.565 144.904 104.379 144.904 101.683C144.904 98.9863 142.718 96.8003 140.021 96.8003C137.325 96.8003 135.139 98.9863 135.139 101.683C135.139 104.379 137.325 106.565 140.021 106.565Z" fill="#110002" stroke="#110002" stroke-width="1.80572" stroke-linejoin="round"/>
        <path d="M187.281 106.565C189.977 106.565 192.163 104.379 192.163 101.683C192.163 98.9863 189.977 96.8003 187.281 96.8003C184.584 96.8003 182.398 98.9863 182.398 101.683C182.398 104.379 184.584 106.565 187.281 106.565Z" fill="#110002" stroke="#110002" stroke-width="1.80572" stroke-linejoin="round"/>
        <path d="M260.934 113.255C252.322 107.515 238.572 111.626 224.501 122.629C224.342 125.624 225.324 128.569 227.248 130.87C228.32 132.119 229.65 133.12 231.148 133.802C230.617 137.381 231.439 140.925 233.75 143.632C236.757 147.141 241.535 148.4 246.317 147.417C246.775 148.806 247.498 150.094 248.447 151.207C252.387 155.819 259.4 156.54 265.441 153.417C271.165 134.9 270.007 119.32 260.934 113.255Z" fill="#FFE3D4" stroke="#110002" stroke-width="1.80572" stroke-miterlimit="10"/>
    </g>
</svg>
