<svg width="12" height="12" viewBox="0 0 12 12" fill="none" xmlns="http://www.w3.org/2000/svg">
<path d="M5.53453 6.175C5.91953 5.48 6.65953 5.07 7.08953 4.455C7.54453 3.81 7.28953 2.605 5.99953 2.605C5.15453 2.605 4.73953 3.245 4.56453 3.775L3.26953 3.23C3.62453 2.165 4.58953 1.25 5.99453 1.25C7.16953 1.25 7.97453 1.785 8.38453 2.455C8.73453 3.03 8.93953 4.105 8.39953 4.905C7.79953 5.79 7.22453 6.06 6.91453 6.63C6.78953 6.86 6.73953 7.01 6.73953 7.75H5.29453C5.28953 7.36 5.22953 6.725 5.53453 6.175ZM6.99953 9.75C6.99953 10.3 6.54953 10.75 5.99953 10.75C5.44953 10.75 4.99953 10.3 4.99953 9.75C4.99953 9.2 5.44953 8.75 5.99953 8.75C6.54953 8.75 6.99953 9.2 6.99953 9.75Z" fill="#1F307C"/>
</svg>
