<svg width="36" height="36" viewBox="0 0 36 36" fill="none" xmlns="http://www.w3.org/2000/svg">
<path d="M16.6036 18.525C17.7586 16.44 19.9786 15.21 21.2686 13.365C22.6336 11.43 21.8686 7.815 17.9986 7.815C15.4636 7.815 14.2186 9.735 13.6936 11.325L9.80859 9.69C10.8736 6.495 13.7686 3.75 17.9836 3.75C21.5086 3.75 23.9236 5.355 25.1536 7.365C26.2036 9.09 26.8186 12.315 25.1986 14.715C23.3986 17.37 21.6736 18.18 20.7436 19.89C20.3686 20.58 20.2186 21.03 20.2186 23.25H15.8836C15.8686 22.08 15.6886 20.175 16.6036 18.525ZM20.9986 29.25C20.9986 30.9 19.6486 32.25 17.9986 32.25C16.3486 32.25 14.9986 30.9 14.9986 29.25C14.9986 27.6 16.3486 26.25 17.9986 26.25C19.6486 26.25 20.9986 27.6 20.9986 29.25Z" fill="#1F307C"/>
</svg>
