<svg width="360" height="126" viewBox="0 0 360 126" fill="none" xmlns="http://www.w3.org/2000/svg">
<mask id="mask0_4243_12232" style="mask-type:alpha" maskUnits="userSpaceOnUse" x="0" y="0" width="360" height="126">
<rect width="360" height="126" fill="#069154"/>
</mask>
<g mask="url(#mask0_4243_12232)">
<path d="M319.197 132.451L339.684 126.961L345.007 146.829L324.521 152.318L319.197 132.451ZM280.842 89.6767C277.892 76.4676 279.971 65.9878 287.08 58.2375C291.555 53.3053 297.734 49.783 305.617 47.6708C315.975 44.8955 325.231 45.0678 333.386 48.1877C341.587 51.2954 346.989 57.7073 349.593 67.4235C351.189 73.3815 351.045 78.7991 349.158 83.6763C348.08 86.6178 345.582 90.6766 341.664 95.8527L337.796 100.942C335.69 103.716 334.57 106.595 334.436 109.578C334.353 111.467 334.78 114.251 335.716 117.93L317.155 122.903C315.354 115.084 314.657 109.549 315.063 106.296C315.456 102.998 317.612 98.7606 321.53 93.5845L325.498 88.3213C326.817 86.6418 327.784 84.9336 328.399 83.1968C329.557 80.1849 329.73 77.1666 328.92 74.1417C327.987 70.6586 326.108 67.7725 323.284 65.4836C320.494 63.1366 316.395 62.6876 310.987 64.1367C305.671 65.5613 302.362 68.3389 301.062 72.4696C299.808 76.588 299.69 80.5492 300.71 84.3532L280.842 89.6767Z" fill="#01703F"/>
<path d="M233.256 90.552L245.553 93.8468L242.357 105.772L230.061 102.477L233.256 90.552ZM226.156 56.8065C228.587 49.0549 232.813 44.2315 238.834 42.3363C242.64 41.1154 246.909 41.1388 251.641 42.4067C257.858 44.0725 262.618 46.9401 265.921 51.0093C269.251 55.086 270.135 60.0402 268.572 65.8722C267.614 69.4483 265.913 72.221 263.468 74.1902C262.025 75.3956 259.508 76.7557 255.918 78.2703L252.38 79.7548C250.453 80.5652 249.007 81.7257 248.042 83.2362C247.432 84.193 246.818 85.7682 246.201 87.9615L235.06 84.9763C236.471 80.3715 237.769 77.2846 238.956 75.7156C240.151 74.1192 242.543 72.5636 246.133 71.0489L249.776 69.504C250.965 69.0267 251.98 68.4289 252.821 67.7108C254.327 66.4926 255.323 64.9757 255.81 63.1601C256.37 61.0694 256.26 59.0055 255.479 56.9682C254.733 54.9108 252.737 53.4472 249.49 52.5774C246.299 51.7224 243.746 52.1734 241.831 53.9304C239.943 55.6948 238.693 57.7186 238.081 60.0019L226.156 56.8065Z" fill="#01703F"/>
</g>
</svg>
