<svg width="12" height="13" viewBox="0 0 12 13" fill="none" xmlns="http://www.w3.org/2000/svg">
<path d="M6 3.47937C6.55 3.47937 7 3.92937 7 4.47937C7 5.02937 6.55 5.47937 6 5.47937C5.45 5.47937 5 5.02937 5 4.47937C5 3.92937 5.45 3.47937 6 3.47937ZM6 8.47937C7.35 8.47937 8.9 9.12437 9 9.47937H3C3.115 9.11937 4.655 8.47937 6 8.47937ZM6 2.47937C4.895 2.47937 4 3.37437 4 4.47937C4 5.58437 4.895 6.47937 6 6.47937C7.105 6.47937 8 5.58437 8 4.47937C8 3.37437 7.105 2.47937 6 2.47937ZM6 7.47937C4.665 7.47937 2 8.14937 2 9.47937V10.4794H10V9.47937C10 8.14937 7.335 7.47937 6 7.47937Z" fill="#0B0A0A"/>
</svg>
